<svg xmlns="http://www.w3.org/2000/svg" version="1.1" xmlns:xlink="http://www.w3.org/1999/xlink" xmlns:svgjs="http://svgjs.dev/svgjs" width="2000" height="479" viewBox="0 0 2000 479"><g transform="matrix(1,0,0,1,-1.2121212121212466,0.42908322238415053)"><svg viewBox="0 0 396 95" data-background-color="#ffffff" preserveAspectRatio="xMidYMid meet" height="479" width="2000" xmlns="http://www.w3.org/2000/svg" xmlns:xlink="http://www.w3.org/1999/xlink"><g id="tight-bounds" transform="matrix(1,0,0,1,0.2400000000000091,-0.08510001279017843)"><svg viewBox="0 0 395.52 95.17020002558037" height="95.17020002558037" width="395.52"><g><svg viewBox="0 0 581.7518026841285 139.98138002298361" height="95.17020002558037" width="395.52"><g transform="matrix(1,0,0,1,0,21.012370888471104)"><svg viewBox="0 0 395.52 97.95663824604141" height="97.95663824604141" width="395.52"><g id="textblocktransform"><svg viewBox="0 0 395.52 97.95663824604141" height="97.95663824604141" width="395.52" id="textblock"><g><svg viewBox="0 0 395.52 97.95663824604141" height="97.95663824604141" width="395.52"><g transform="matrix(1,0,0,1,0,0)"><svg width="395.52" viewBox="1.88 -31.94 171.02 42.36" height="97.95663824604141" data-palette-color="#b003ca"><path d="M11.35 0.69L11.35 0.69Q8.51 0.69 5.95-0.36 3.4-1.42 1.88-2.92L1.88-2.92 3.58-9.86Q4.79-7.74 7.01-6.34 9.24-4.93 11.56-4.93L11.56-4.93Q13.47-4.93 14.57-5.97 15.66-7.01 15.66-8.51L15.66-8.51Q15.66-9.72 15.09-10.52 14.51-11.32 13.73-11.84 12.95-12.36 12.36-12.64L12.36-12.64 8.68-14.48Q7.08-15.28 5.63-16.37 4.17-17.47 3.25-19.1 2.33-20.73 2.33-23.13L2.33-23.13Q2.33-25.76 3.52-27.74 4.72-29.72 6.91-30.83 9.1-31.94 12.05-31.94L12.05-31.94Q14.83-31.94 17-31.06 19.17-30.17 20.52-29.17L20.52-29.17 18.92-22.4Q17.53-24.2 15.61-25.3 13.68-26.39 11.77-26.39L11.77-26.39Q10.07-26.39 9.15-25.52 8.23-24.65 8.23-23.37L8.23-23.37Q8.23-22.57 8.59-21.94 8.96-21.32 9.65-20.83 10.35-20.35 11.28-19.86L11.28-19.86 15-18.02Q15.94-17.57 17.05-16.86 18.16-16.15 19.2-15.07 20.24-13.99 20.9-12.48 21.56-10.97 21.56-8.89L21.56-8.89Q21.56-6.18 20.31-4.01 19.06-1.84 16.79-0.57 14.51 0.69 11.35 0.69ZM33.68 0L27.64 0 27.64-16.04 23.75-16.04 23.75-20.83 27.74-20.83 27.74-27.78 33.57-27.78 33.57-20.83 37.71-20.83 37.71-16.04 33.68-16.04 33.68 0ZM50.2 0.56L50.2 0.56Q47.32 0.56 44.96-0.94 42.6-2.43 41.19-4.91 39.79-7.4 39.79-10.42L39.79-10.42Q39.79-13.44 41.19-15.94 42.6-18.44 44.96-19.91 47.32-21.39 50.2-21.39L50.2-21.39Q52.22-21.39 53.88-20.68 55.55-19.97 56.73-18.72L56.73-18.72 56.73-20.83 61.94-20.83 61.94 0 56.73 0 56.73-2.12Q55.55-0.87 53.88-0.16 52.22 0.56 50.2 0.56ZM50.93-4.76L50.93-4.76Q52.46-4.76 53.71-5.52 54.96-6.28 55.71-7.57 56.45-8.85 56.45-10.42L56.45-10.42Q56.45-11.98 55.71-13.26 54.96-14.55 53.71-15.31 52.46-16.08 50.93-16.08L50.93-16.08Q49.4-16.08 48.15-15.31 46.9-14.55 46.16-13.26 45.41-11.98 45.41-10.42L45.41-10.42Q45.41-8.85 46.16-7.57 46.9-6.28 48.15-5.52 49.4-4.76 50.93-4.76ZM72.49 10.42L66 10.42 72.94-3.54 64.44-20.83 71.1-20.83 74.78-13.19Q75.27-12.15 75.63-11.3 76-10.45 76.24-9.65L76.24-9.65Q76.52-10.45 76.9-11.3 77.28-12.15 77.81-13.19L77.81-13.19 81.56-20.83 87.98-20.83 72.49 10.42ZM97.56 0L91.52 0 91.52-31.25 97.56-31.25 97.56-21.25 106.59-21.25 106.59-31.25 112.63-31.25 112.63 0 106.59 0 106.59-15.63 97.56-15.63 97.56 0ZM124.36 0L118.32 0 118.32-20.83 124.36-20.83 124.36 0ZM121.34-23.85L121.34-23.85Q119.99-23.85 119.05-24.79 118.11-25.73 118.11-27.08L118.11-27.08Q118.11-28.47 119.05-29.39 119.99-30.31 121.34-30.31L121.34-30.31Q122.73-30.31 123.65-29.39 124.57-28.47 124.57-27.08L124.57-27.08Q124.57-25.73 123.65-24.79 122.73-23.85 121.34-23.85ZM149.78-20.83L138.35 1.04 126.93-20.83 133.63-20.83 136.89-14.13Q137.35-13.26 137.73-12.41 138.11-11.56 138.49-10.49L138.49-10.49Q138.87-11.56 139.26-12.41 139.64-13.26 140.09-14.13L140.09-14.13 143.35-20.83 149.78-20.83ZM163.07 0.69L163.07 0.69Q159.57 0.69 156.89-0.76 154.22-2.22 152.73-4.77 151.23-7.33 151.23-10.63L151.23-10.63Q151.23-13.78 152.69-16.23 154.15-18.68 156.63-20.1 159.11-21.53 162.14-21.53L162.14-21.53Q165.23-21.53 167.66-20.12 170.09-18.72 171.49-16.28 172.9-13.85 172.9-10.76L172.9-10.76 172.9-8.65 160.19-8.65Q159.32-8.65 158.52-8.75 157.73-8.85 156.93-8.99L156.93-8.99Q157.34-6.91 158.99-5.61 160.64-4.31 163.21-4.31L163.21-4.31Q165.19-4.31 166.77-5.1 168.35-5.9 169.36-7.08L169.36-7.08 170.68-1.67Q169.11-0.49 167.15 0.1 165.19 0.69 163.07 0.69ZM156.79-12.64L156.79-12.64Q158.52-13.02 160.19-13.02L160.19-13.02 163.87-13.02Q164.84-13.02 165.71-12.95 166.58-12.88 167.34-12.71L167.34-12.71Q166.82-14.58 165.45-15.66 164.08-16.74 162.07-16.74L162.07-16.74Q160.16-16.74 158.75-15.64 157.34-14.55 156.79-12.64Z" opacity="1" transform="matrix(1,0,0,1,0,0)" fill="#b003ca" class="wordmark-text-0" data-fill-palette-color="primary" id="text-0"></path></svg></g></svg></g></svg></g></svg></g><g transform="matrix(1,0,0,1,441.77042266114495,0)"><svg viewBox="0 0 139.98138002298361 139.98138002298361" height="139.98138002298361" width="139.98138002298361"><g><svg></svg></g><g id="icon-0"><svg viewBox="0 0 139.98138002298361 139.98138002298361" height="139.98138002298361" width="139.98138002298361"><g><path d="M0 69.991c0-38.655 31.336-69.991 69.991-69.991 38.655 0 69.991 31.336 69.99 69.991 0 38.655-31.336 69.991-69.99 69.99-38.655 0-69.991-31.336-69.991-69.99zM69.991 131.148c33.776 0 61.157-27.381 61.157-61.157 0-33.776-27.381-61.157-61.157-61.157-33.776 0-61.157 27.381-61.157 61.157 0 33.776 27.381 61.157 61.157 61.157z" data-fill-palette-color="accent" fill="#b003ca" stroke="transparent"></path></g><g transform="matrix(1,0,0,1,32.45840308595197,32.457557389627716)"><svg viewBox="0 0 75.06457385107967 75.06626524372818" height="75.06626524372818" width="75.06457385107967"><g><svg xmlns="http://www.w3.org/2000/svg" xmlns:xlink="http://www.w3.org/1999/xlink" version="1.1" x="0" y="0" viewBox="19.999536975472395 20 60.00064803528767 60.001999999999995" enable-background="new 0 0 100 100" xml:space="preserve" height="75.06626524372818" width="75.06457385107967" class="icon-cg-0" data-fill-palette-color="accent" id="cg-0"><g fill="#b003ca" data-fill-palette-color="accent"><path d="M50 25c2.536 0 5.072 0.839 7.049 2.517l16.189 13.736c2.104 1.785 2.359 4.935 0.571 7.035-0.989 1.162-2.396 1.759-3.812 1.759-1.146 0-2.296-0.39-3.236-1.188l-16.19-13.736c-0.115-0.097-0.344-0.146-0.572-0.146-0.228 0-0.455 0.048-0.569 0.146L33.238 48.857c-0.94 0.798-2.091 1.188-3.236 1.188-1.415 0-2.822-0.597-3.812-1.758-1.788-2.1-1.532-5.25 0.571-7.035l16.19-13.736C44.928 25.839 47.464 25 50 25M50 41.187l17.5 14.847v13.976c0 2.745-2.25 4.991-5 4.991h-25c-2.75 0-5-2.246-5-4.991V56.034l3.977-3.374L50 41.187M50 20c-3.818 0-7.47 1.316-10.284 3.705L23.527 37.44c-2.037 1.728-3.278 4.146-3.494 6.808s0.619 5.247 2.351 7.281c1.351 1.586 3.141 2.692 5.116 3.201v1.305 13.976c0 5.509 4.486 9.991 10 9.991h25c5.514 0 10-4.482 10-9.991V56.034v-1.304c1.976-0.509 3.766-1.615 5.116-3.201 1.731-2.034 2.566-4.62 2.351-7.281s-1.457-5.08-3.494-6.808L60.283 23.704C57.47 21.316 53.817 20 50 20L50 20z" fill="#b003ca" data-fill-palette-color="accent"></path></g></svg></g></svg></g></svg></g></svg></g></svg></g><defs></defs></svg><rect width="395.52" height="95.17020002558037" fill="none" stroke="none" visibility="hidden"></rect></g></svg></g></svg>